<?xml version="1.0" encoding="UTF-8"?> <svg xmlns="http://www.w3.org/2000/svg" id="Layer_1" viewBox="0 0 566.93 431.24"><defs><style>.cls-1{fill:#00549a;}.cls-2{fill:#fff;}.cls-3{fill:#fff200;}</style></defs><rect class="cls-2" width="566.93" height="431.24"></rect><rect class="cls-1" x="14.68" y="14.68" width="537.57" height="106.68"></rect><rect class="cls-1" x="14.68" y="131.72" width="537.57" height="167.8"></rect><rect class="cls-1" x="14.68" y="309.88" width="537.57" height="106.69"></rect><rect class="cls-2" x="467.02" y="95.82" width="15.83" height="9.84"></rect><rect class="cls-2" x="446.82" y="95.82" width="15.83" height="9.84"></rect><polygon class="cls-2" points="225.29 77.34 215.62 77.34 215.62 63.46 196.11 63.46 196.11 77.34 55.16 77.34 53.45 73.68 66.81 56.29 66.81 43.85 47.62 43.85 26.44 71.42 38.5 97.2 244.8 97.2 244.8 63.46 225.29 63.46 225.29 77.34"></polygon><rect class="cls-2" x="227.59" y="45.36" width="15.83" height="9.84"></rect><rect class="cls-2" x="79.13" y="48.34" width="15.83" height="9.84"></rect><rect class="cls-2" x="99.68" y="48.34" width="15.83" height="9.84"></rect><polygon class="cls-2" points="528.31 59.47 470.65 59.47 461.88 52.16 523.12 52.16 516.73 41.01 439.84 41.01 438.61 44.96 465.02 66.97 510.46 66.97 510.46 72.82 461.36 72.82 444.69 58.92 411.39 58.92 411.39 88.35 356.56 88.35 356.56 76.29 402.8 76.29 402.8 58.92 328.04 58.92 328.04 102.61 431.13 102.61 431.13 79.39 442.76 89.09 529.07 89.09 541.17 76.69 541.17 72.65 528.31 59.47"></polygon><rect class="cls-2" x="264.04" y="68.85" width="36.51" height="15.94"></rect><polygon class="cls-3" points="481.16 282.95 382.47 208.71 479.42 149.33 305.75 149.33 220.8 201.36 220.8 149.33 99.68 149.33 99.68 282.95 220.8 282.95 220.8 213.39 298.54 282.95 481.16 282.95"></polygon><path class="cls-2" d="M75.54,402.22v-66.2h17.36v7.86c2.48-3.21,5.4-5.61,8.77-7.22,3.37-1.6,7.13-2.41,11.27-2.41,7.31,0,12.78,1.9,16.41,5.69,3.63,3.8,5.45,9.51,5.45,17.15v45.13h-17.72v-40.01c0-4.75-.8-8.14-2.41-10.17-1.6-2.03-4.21-3.04-7.83-3.04-4.18,0-7.49,1.25-9.93,3.75-2.44,2.5-3.65,5.9-3.65,10.2v39.28h-17.72Z"></path><path class="cls-2" d="M294.68,381.3h17.66c-1.79,6.99-5.39,12.46-10.81,16.42-5.42,3.96-12.03,5.94-19.83,5.94-9.58,0-17.18-3.22-22.78-9.65-5.6-6.43-8.4-15.15-8.4-26.16s2.76-19.39,8.28-25.64c5.52-6.25,13.07-9.38,22.66-9.38,10.15,0,17.99,3.08,23.51,9.23,5.52,6.15,8.28,14.91,8.28,26.28,0,1.26-.01,2.2-.03,2.83-.02.63-.07,1.23-.15,1.8h-44.22c.24,5.2,1.51,9.12,3.81,11.75,2.29,2.64,5.59,3.96,9.9,3.96,3.05,0,5.54-.6,7.49-1.8,1.95-1.2,3.49-3.05,4.63-5.57ZM268.85,361.32h26.07c-.16-4.47-1.35-7.87-3.56-10.2-2.21-2.33-5.39-3.5-9.53-3.5-3.86,0-6.89,1.18-9.11,3.53-2.21,2.36-3.5,5.75-3.87,10.17Z"></path><path class="cls-2" d="M489.23,410.44c-1.62.04-3.56.11-5.82.21-2.25.1-3.68.15-4.29.15-6.78,0-11.42-1.27-13.92-3.81-2.5-2.54-3.75-7.54-3.75-15.01v-35.81h-8.77v-12.43h8.77v-18.09h17.54v18.09h10.23v12.43h-10.23v36.67c0,1.75.39,2.89,1.16,3.44.77.55,2.35.82,4.75.82h4.32v13.34Z"></path></svg> 